<svg width="21" height="20" viewBox="0 0 21 20" fill="none" xmlns="http://www.w3.org/2000/svg">
<path d="M11.3371 2.63074C11.1332 2.44456 10.8169 2.45895 10.6307 2.66289C10.4446 2.86683 10.459 3.18309 10.6629 3.36927L16.8307 9H3C2.72386 9 2.5 9.22386 2.5 9.5C2.5 9.77614 2.72386 10 3 10H16.8279L10.6629 15.6281C10.459 15.8143 10.4446 16.1305 10.6307 16.3345C10.8169 16.5384 11.1332 16.5528 11.3371 16.3666L18.2535 10.0526C18.3934 9.92482 18.4732 9.75728 18.493 9.58414C18.4976 9.55678 18.5 9.52867 18.5 9.5C18.5 9.47313 18.4979 9.44675 18.4938 9.42103C18.4756 9.24512 18.3955 9.07446 18.2535 8.94478L11.3371 2.63074Z" fill="#212121"/>
</svg>
