<svg width="20" height="20" viewBox="0 0 20 20" fill="none" xmlns="http://www.w3.org/2000/svg">
<path d="M15.8352 4.16475C16.0549 4.38442 16.0549 4.74058 15.8352 4.96025L10.7955 10L15.8352 15.0398C16.0549 15.2594 16.0549 15.6156 15.8352 15.8352C15.6156 16.0549 15.2594 16.0549 15.0398 15.8352L10 10.7955L4.96025 15.8352C4.74058 16.0549 4.38442 16.0549 4.16475 15.8352C3.94508 15.6156 3.94508 15.2594 4.16475 15.0398L9.2045 10L4.16475 4.96025C3.94508 4.74058 3.94508 4.38442 4.16475 4.16475C4.38442 3.94508 4.74058 3.94508 4.96025 4.16475L10 9.2045L15.0398 4.16475C15.2594 3.94508 15.6156 3.94508 15.8352 4.16475Z" fill="#212121"/>
</svg>
