<svg width="20" height="20" viewBox="0 0 20 20" fill="none" xmlns="http://www.w3.org/2000/svg">
<path d="M17.7803 2.21967C18.0732 2.51256 18.0732 2.98744 17.7803 3.28033L3.28033 17.7803C2.98744 18.0732 2.51256 18.0732 2.21967 17.7803C1.92678 17.4874 1.92678 17.0126 2.21967 16.7197L16.7197 2.21967C17.0126 1.92678 17.4874 1.92678 17.7803 2.21967Z" fill="#ffffff"/>
<path d="M17.7803 17.7803C18.0732 17.4874 18.0732 17.0126 17.7803 16.7197L3.28033 2.21967C2.98744 1.92678 2.51256 1.92678 2.21967 2.21967C1.92678 2.51256 1.92678 2.98744 2.21967 3.28033L16.7197 17.7803C17.0126 18.0732 17.4874 18.0732 17.7803 17.7803Z" fill="#ffffff"/>
</svg>
