<svg width="18" height="18" viewBox="0 0 18 18" fill="none" xmlns="http://www.w3.org/2000/svg">
<path d="M17.2521 9.00003C17.2521 9.31069 17.0003 9.56253 16.6896 9.56253H9.56235V16.6898C9.56235 17.0005 9.31051 17.2523 8.99985 17.2523C8.68919 17.2523 8.43735 17.0005 8.43735 16.6898L8.43735 9.56253L1.31006 9.56253C0.999398 9.56253 0.747558 9.31069 0.747559 9.00003C0.747559 8.68937 0.999398 8.43753 1.31006 8.43753L8.43735 8.43753V1.31024C8.43735 0.999581 8.68918 0.747742 8.99984 0.747742C9.3105 0.747742 9.56234 0.999581 9.56234 1.31024L9.56235 8.43753H16.6896C17.0003 8.43753 17.2521 8.68937 17.2521 9.00003Z" fill="#212121"/>
</svg>
