<svg width="20" height="20" viewBox="0 0 20 20" fill="none" xmlns="http://www.w3.org/2000/svg">
<path d="M3.0018 6.50095L3.00195 3.50098C3.00195 3.22483 3.22581 3.00098 3.50195 3.00098C3.7781 3.00098 4.00195 3.22483 4.00195 3.50098V4.70809C4.84386 3.75311 5.91565 2.99455 7.14641 2.52573C7.8572 2.25402 8.6167 2.08076 9.40824 2.02268C10.2787 1.95719 11.1307 2.03498 11.9395 2.2372C15.4216 3.10336 18.002 6.25083 18.002 10.001C18.002 10.03 18.0018 10.059 18.0015 10.088C17.9981 10.4419 17.9712 10.7916 17.9221 11.1354C17.6523 13.0361 16.7145 14.7219 15.3538 15.9473C14.8442 16.4069 14.2731 16.8033 13.6515 17.1219C12.6979 17.6116 11.6332 17.9154 10.5052 17.9854C9.47994 18.0512 8.48148 17.9186 7.55055 17.6184C6.75727 17.3633 6.018 16.9877 5.35431 16.5132C3.64241 15.2913 2.41309 13.401 2.08535 11.1603C2.08176 11.1358 2.07829 11.1113 2.07492 11.0867C2.00077 10.5454 1.98263 10.0089 2.01621 9.48306C2.03381 9.20748 2.27148 8.99835 2.54706 9.01595C2.82264 9.03355 3.03178 9.27122 3.01418 9.5468C3.00549 9.68284 3.00075 9.81975 3.00008 9.95743C3.00132 9.97178 3.00195 9.9863 3.00195 10.001C3.00195 13.1012 5.01736 15.7307 7.80946 16.6508C8.49913 16.878 9.23618 17.001 10.002 17.001C10.1483 17.001 10.2936 16.9965 10.4377 16.9876C10.608 16.9768 10.7792 16.9597 10.9509 16.9362C11.788 16.8215 12.5702 16.5633 13.276 16.1897C15.7994 14.854 17.3461 12.0441 16.9361 9.05095C16.5351 6.12342 14.3782 3.86803 11.6736 3.20182C11.1379 3.07058 10.5781 3.00098 10.002 3.00098C9.82671 3.00098 9.65297 3.00741 9.48095 3.02007C9.33812 3.03084 9.19472 3.04602 9.05089 3.06573C8.53006 3.13707 8.03054 3.26394 7.55748 3.43957C6.2135 3.94043 5.06469 4.84252 4.25661 6.00095H6.00195C6.2781 6.00095 6.50195 6.22483 6.50195 6.50098C6.50195 6.77712 6.2781 7.00098 6.00195 7.00098H3.50195C3.46633 7.00098 3.43158 6.99725 3.39806 6.99017C3.1717 6.94241 3.0018 6.74152 3.0018 6.50095Z" fill="#212121"/>
</svg>
